<svg xmlns="http://www.w3.org/2000/svg" width="659" height="719" fill="none" viewBox="0 0 659 719"><g clip-path="url(#a)"><path fill="#ededf0" d="M70.228.368q61.639.397 123.277.168L296.396.58l77.619-.058c15.367.004 34.684-.445 49.887.279a283.8 283.8 0 0 1 62.796 9.901 247.4 247.4 0 0 1 96.038 51.124c49.384 43.286 76.243 106.329 75.358 171.807a249.86 249.86 0 0 1-76.534 177.331c-39.052 37.832-96.368 60.715-150.124 65.461-20.707 1.826-48.293 1.011-69.639 1.018h-98.759c-4.227-.003-23.69-.523-26.105.622-2.373 1.12-6.159 22.265-7.155 26.285-6.822 27.534-13.027 55.396-19.807 82.948-3.891 15.809-7.009 33.872-12.847 48.834-17.063 43.33-56.028 74.2-102.114 80.898-7.027 1.092-13.436 1.25-20.527 1.236a7017 7017 0 0 0-59.468.081c-.953.004-2.796-.049-3.62-.488-1.211-3.177 3.092-18.702 4.087-22.89a2630 2630 0 0 0 7.118-30.958c8.967-40.036 18.117-80.178 29.295-119.663 4.61-16.29 11.45-32.829 18.774-48.07 1.714-3.563 3.891-7.056 5.446-10.676-6.333-8.977-23.383.745-29.518 5.474-17.835 13.755-30.229 33.13-39.89 53.198-2.283 4.75-3.286 9.275-5.782 14.106.2-6.242 1.892-13.699 2.523-20.183.672-8.233 2.058-22.69 3.573-30.565.04-4.43 1.5-14.267 2.084-18.965a560 560 0 0 1 14.892-76.597c16.88-63.633 56.935-125.145 110.478-163.853a273 273 0 0 1 27.356-17.324c4.66-2.556 10.234-5.058 14.689-7.673l.323-.192c-.806-2.258-2.253-11.004-2.877-13.94a634 634 0 0 0-6.569-27.277c-5.033-18.518-11.261-37.905-17.707-55.942-4.014-11.233-9.186-21.882-13.859-32.782l-.376-.48c-2.622-3.308-6.692-7.257-9.711-10.391a293 293 0 0 1-11.115-12.238c-13.399-15.571-25.14-33.744-35.452-51.514-2.85-4.912-7.372-12.805-8.949-18.096"/><path fill="#222560" d="m343.212 162.212-.159-.372c-.781-1.886-1.13-3.673-1.296-5.697-.519-6.332-1.612-58.587-.45-61.722.428-1.155 1.044-1.623 2.128-2.123 1.734.168 5.299 2.27 6.818 3.251 14.827 9.572 29.646 19.197 44.512 28.715l113.918 72.872 37.251 23.728c5.516 3.475 11.07 6.915 16.653 10.339 3.869 2.372 10.95 6.818 4.009 11.028-5.196 3.152-10.336 6.272-15.48 9.543l-48.24 30.469-165.128 105.382c-2.47 1.544-4.241 3.254-6.749 1.06-1.325-2.286 1.667-15.742 2.246-18.941l5.549-30.092c.911-4.803 2.344-11.103 2.375-15.976.007-1.119-1.211-2.159-2.251-2.659-6.264-.242-26.115 4.745-33.235 6.364A380.34 380.34 0 0 0 129.669 418.4a294.2 294.2 0 0 0-41.307 47.753c-3.02 4.311-5.5 8.598-8.206 13.102-.853 1.418-3.059 5.262-4.041 6.347-6.333-8.977-23.383.745-29.518 5.474-17.835 13.755-30.229 33.13-39.89 53.198-2.283 4.75-3.286 9.275-5.782 14.106.2-6.242 1.892-13.699 2.523-20.183.672-8.233 2.058-22.69 3.573-30.565.04-4.43 1.5-14.267 2.084-18.965a560 560 0 0 1 14.892-76.597c16.88-63.633 56.935-125.145 110.478-163.853a273 273 0 0 1 27.356-17.324c4.66-2.556 10.234-5.058 14.689-7.673l.323-.192c-.806-2.258-2.253-11.004-2.877-13.94a634 634 0 0 0-6.569-27.277c-5.033-18.518-11.261-37.905-17.707-55.942-4.014-11.233-9.186-21.882-13.859-32.782 3.906 2.111 9.31 7.976 13.033 10.948a248 248 0 0 0 27.886 19.563c40.504 24.39 81.486 31.196 127.817 35.197 13.007 1.123 25.532 2.664 38.645 3.417"/><path fill="#3f6afb" d="M135.831 93.087c3.906 2.111 9.31 7.976 13.033 10.948a248 248 0 0 0 27.886 19.563c40.504 24.39 81.486 31.196 127.817 35.197 13.007 1.123 25.532 2.664 38.645 3.417 5.071 5.012 11.532 10.501 16.896 15.446a5072 5072 0 0 0 39.052 36.266c8.279 7.639 16.8 14.96 24.749 22.912.147 1.337.028 2.267-.871 3.322-2.194 2.568-23.348 5.072-28.049 5.886-13.728 2.377-27.536 4.351-41.225 6.937-92.931 17.551-176.105 43.891-247.776 108.829a333 333 0 0 0-73.933 95.689 296 296 0 0 0-16.072 38.73c-1.76 5.144-3.431 11.495-5.212 16.36-1.797.394-1.284 4.74-2.736 6.924l-1.194-.06c-.505-.593.424-9.728.18-11.821.04-4.43 1.5-14.267 2.084-18.965a560 560 0 0 1 14.892-76.597c16.88-63.633 56.935-125.145 110.478-163.853a273 273 0 0 1 27.356-17.324c4.66-2.556 10.234-5.057 14.689-7.673l.323-.192c-.806-2.258-2.253-11.004-2.877-13.94a634 634 0 0 0-6.569-27.277c-5.033-18.518-11.261-37.905-17.707-55.942-4.014-11.233-9.186-21.882-13.859-32.782"/><path fill="#315ad7" d="M135.831 93.087c3.906 2.111 9.31 7.976 13.033 10.948a248 248 0 0 0 27.886 19.563c40.504 24.39 81.486 31.196 127.817 35.197 13.007 1.123 25.532 2.664 38.645 3.417 5.071 5.012 11.532 10.501 16.896 15.446a5091 5091 0 0 0 39.052 36.266c8.279 7.639 16.8 14.96 24.749 22.912-6.885.624-19.152-1.314-26.188-2.105-7.215-.811-14.458-1.505-21.691-2.22l-74.268-6.787c-35.681-3.13-73.351-7.22-109.008-4.652-4.558.329-11.781.777-15.911 1.956-.806-2.258-2.253-11.004-2.877-13.94a634 634 0 0 0-6.569-27.277c-5.033-18.518-11.261-37.905-17.707-55.942-4.014-11.233-9.186-21.882-13.859-32.782M7.02 507.632c.245 2.093-.684 11.228-.179 11.821l1.194.06c1.452-2.184.939-6.53 2.736-6.924-.79 4.101-5.341 22.431-7.323 25.608.672-8.233 2.059-22.69 3.573-30.565"/></g><defs><clipPath id="a"><path fill="#fff" d="M0 0h659v719H0z"/></clipPath></defs></svg>